<?xml version="1.0" encoding="utf-8"?>
<!-- Generator: Adobe Illustrator 27.5.0, SVG Export Plug-In . SVG Version: 6.00 Build 0)  -->
<svg version="1.1" id="Layer_1" xmlns="http://www.w3.org/2000/svg" xmlns:xlink="http://www.w3.org/1999/xlink" x="0px" y="0px"
	 viewBox="0 0 47.5 40.9" style="enable-background:new 0 0 47.5 40.9;" xml:space="preserve">
<style type="text/css">
	.st0{fill:none;stroke:#F7941D;stroke-width:2;stroke-miterlimit:10;}
	.st1{fill:#F7941D;}
	.st2{fill-rule:evenodd;clip-rule:evenodd;fill:#F7941D;}
	.st3{fill:#FFFFFF;}
	.st4{fill:none;}
	.st5{fill:#F7941D;stroke:#F79520;stroke-miterlimit:10;}
</style>
<line class="st0" x1="-8.8" y1="13" x2="-29.3" y2="13"/>
<line class="st0" x1="-8.8" y1="19.5" x2="-29.3" y2="19.5"/>
<line class="st0" x1="-8.8" y1="26" x2="-29.3" y2="26"/>
<line class="st0" x1="134.7" y1="7.6" x2="134.7" y2="31.9"/>
<line class="st0" x1="179.4" y1="7.6" x2="179.4" y2="31.9"/>
<line class="st0" x1="224.1" y1="7.6" x2="224.1" y2="31.9"/>
<g>
	<g>
		<g>
			<path class="st1" d="M218.5,7c0,0-2.1-1.9-4.5-1.9S209.7,7,209.7,7s-0.1-0.2-0.5-0.2s-1.3,0.2-1.6,0.4s-0.2,0-1,0
				S205,7,204.9,6.9c-0.1,0-0.5-0.3-0.6-0.1c-0.1,0.1-0.1,0.5-0.3,0.4s-0.9-0.5-1.3-0.5c-0.4,0-0.7,0-0.7,0l0,0c0,0-0.3,0-0.7,0
				s-1.1,0.5-1.3,0.5c-0.2,0.1-0.2-0.3-0.3-0.4c-0.1-0.1-0.5,0.1-0.6,0.1s-0.9,0.3-1.7,0.3s-0.7,0.2-1,0s-1.2-0.4-1.6-0.4
				c-0.4,0-0.5,0.2-0.5,0.2s-1.9-1.9-4.3-1.9S185.5,7,185.5,7c-0.6,0.5,0.8,0.8,0.8,0.8s1,0.9,1.3,1c0.2,0.2,0.7,0.5,1,0.8
				s0.5,0.7,0.6,0.8s0.3-0.3,1,1.3c0.7,1.5,2.7,2.4,2.7,2.4s0.4,0.4,0.9,0.6s0.4,0.6,0.3,0.8c0,0.2-0.2,0.4-0.3,0.5
				s-0.4,0.6-0.6,0.7c-0.2,0.1-0.5,0.4-0.8,0.5s-0.4,0.4-0.5,0.6s-0.4,0.5-0.5,0.7s-0.7,0.5-1.1,0.5c-0.4,0.1-0.5,0.7-0.6,1.1
				c-0.2,0.4-0.2,0.6-0.3,0.9s-0.4,0.8-0.5,1.2c-0.1,0.4,0,0.7,0.3,1.4c0.3,0.7,0.4,0.4,1.1,0.5c0.8,0,0.3,0.1,0.3,0.6
				s1.1,0.8,1.1,0.8l0.3-0.6l0.5,0.1l0.4-0.3l0.4-0.5c0,0,0,0,0.2,0.2s0.5,0.1,1.1,0s1.6-0.1,1.6-0.1s-0.1,0.5-0.1,0.8
				c0,0.2-0.3,1.1-0.3,1.8s0,0.8,0,1.2c0.1,0.4,0.1,0.6,0.2,1.3c0.1,0.7,0.2,1.2,0.3,1.6c0.1,0.4,0.5,0.5,0.7,1
				c0.3,0.4,0.2,0.8,0.2,0.8s0.2,0.8,0.5,1.1s0.6-0.1,0.6-0.1s0,0,0,0.1s0.5,0.1,0.9,0s0.5-0.4,0.5-0.4s0.1,0.1,0.3,0.3
				c0.1,0.2,0.6,0.1,0.9-0.2c0.3-0.3,0.3-1,0.3-1.1s0.5-0.5,0.6-0.8c0.2-0.3,0.4-1.1,0.4-1.1l0,0c0,0,0.3,0.8,0.4,1.1
				c0.2,0.3,0.6,0.6,0.6,0.8c0,0.1,0,0.9,0.3,1.1c0.3,0.3,0.8,0.4,0.9,0.2c0.1-0.2,0.3-0.3,0.3-0.3s0.1,0.3,0.5,0.4
				c0.4,0.1,0.9,0.1,0.9,0s0-0.1,0-0.1s0.3,0.4,0.6,0.1c0.3-0.3,0.5-1.1,0.5-1.1s-0.1-0.4,0.2-0.8c0.3-0.4,0.6-0.6,0.7-1
				c0.1-0.4,0.2-0.9,0.3-1.6c0.1-0.7,0.1-0.9,0.2-1.3c0.1-0.4,0.1-0.5,0-1.2c0-0.6-0.3-1.5-0.3-1.8s-0.1-0.8-0.1-0.8s1,0.1,1.6,0.1
				c0.6,0.1,0.9,0.2,1.1,0c0.2-0.2,0.2-0.2,0.2-0.2l0.4,0.5l0.4,0.3l0.5-0.1l0.3,0.6c0,0,1.1-0.3,1.1-0.8s-0.5-0.6,0.3-0.6
				s0.9,0.2,1.1-0.5c0.3-0.7,0.4-1,0.3-1.4c-0.1-0.4-0.4-0.9-0.5-1.2c-0.1-0.3-0.1-0.5-0.3-0.9s-0.3-1-0.6-1.1
				c-0.4-0.1-0.9-0.4-1.1-0.5c-0.1-0.2-0.4-0.5-0.5-0.7s-0.2-0.5-0.5-0.6s-0.6-0.4-0.8-0.5s-0.5-0.6-0.6-0.7s-0.3-0.3-0.3-0.5
				s-0.2-0.6,0.3-0.8s0.9-0.6,0.9-0.6s2-0.8,2.7-2.4c0.7-1.5,0.9-1.1,1-1.3c0.1-0.1,0.3-0.5,0.6-0.8s0.8-0.6,1-0.8s1.3-1,1.3-1
				S219.1,7.4,218.5,7z"/>
		</g>
	</g>
</g>
<g>
	<g>
		<polyline class="st2" points="235,5.3 239.7,5.3 240.8,9 262.6,9 261.8,18.3 243.2,21.5 242.8,21.6 242.6,21.8 242.3,22.2 
			242.2,22.5 242.2,22.7 242.2,23 242.2,23.2 242.5,23.7 242.8,24.1 243.1,24.2 243.4,24.3 261.8,24.4 261.8,27 242.6,26.9 
			242.2,26.9 241.5,26.7 240.9,26.5 240.4,26.1 240,25.6 239.7,25.2 239.5,24.6 239.2,24 239.2,23.5 239.2,22.9 239.2,22.2 
			239.4,21.7 239.6,21.2 239.9,20.6 240.2,20.3 240.7,19.9 237.3,7.5 235.7,7.5 235,5.3 		"/>
	</g>
	<g>
		<polyline class="st2" points="235.1,5.4 239.7,5.4 240.8,9 262.6,9 261.9,18.3 243.3,21.5 242.8,21.7 242.7,21.8 242.3,22.2 
			242.3,22.5 242.3,22.7 242.3,23 242.3,23.3 242.5,23.7 242.8,24.1 243.2,24.3 243.4,24.4 261.9,24.4 261.9,27 242.7,27 242.3,27 
			241.6,26.7 241,26.5 240.4,26.1 240,25.7 239.7,25.2 239.5,24.7 239.3,24 239.2,23.5 239.2,22.9 239.3,22.3 239.4,21.7 
			239.7,21.2 239.9,20.7 240.3,20.3 240.7,19.9 237.4,7.6 235.8,7.6 235.1,5.4 		"/>
	</g>
	<g>
		<polyline class="st2" points="244.9,27.5 245.5,27.6 245.8,27.7 246.4,27.9 246.8,28.2 247.1,28.5 247.3,28.6 247.6,29.1 
			247.7,29.4 247.8,29.7 247.9,30 248,30.6 247.9,31.2 247.8,31.5 247.7,31.8 247.4,32.4 247.3,32.6 246.8,33 246.6,33.2 
			246.1,33.4 245.5,33.7 244.8,33.7 244.3,33.7 243.8,33.4 243.2,33.2 242.9,33 242.5,32.6 242.4,32.4 242.1,31.8 242,31.5 
			241.9,31.2 241.8,30.9 241.8,30.4 241.9,30 242,29.7 242.1,29.4 242.4,28.9 242.5,28.6 242.9,28.2 243.5,27.9 244,27.7 
			244.3,27.6 244.9,27.5 		"/>
	</g>
	<g>
		<polyline class="st2" points="244.9,27.6 245.6,27.6 245.9,27.7 246.4,28 246.9,28.3 247.1,28.5 247.3,28.6 247.6,29.2 
			247.8,29.5 247.9,29.7 247.9,30 248,30.6 247.9,31.2 247.9,31.6 247.8,31.9 247.5,32.4 247.3,32.6 246.9,33 246.6,33.2 
			246.1,33.5 245.6,33.7 244.8,33.7 244.3,33.7 243.8,33.5 243.3,33.2 243,33 242.6,32.6 242.4,32.4 242.1,31.9 242,31.6 242,31.2 
			241.9,30.9 241.9,30.5 242,30 242,29.7 242.1,29.5 242.4,28.9 242.6,28.6 243,28.3 243.5,28 244,27.7 244.9,27.6 		"/>
	</g>
	<g>
		<polyline class="st2" points="258.5,27.5 259.1,27.6 259.3,27.7 259.9,27.9 260.4,28.2 260.6,28.5 260.8,28.6 261.2,29.1 
			261.3,29.4 261.5,30 261.5,30.6 261.5,31.2 261.3,31.8 261,32.4 260.8,32.6 260.4,33 260.2,33.2 259.7,33.4 259.1,33.7 
			258.3,33.7 257.9,33.7 257.6,33.6 257.2,33.4 256.8,33.2 256.6,33 256.1,32.6 255.9,32.4 255.6,31.8 255.5,31.2 255.4,30.9 
			255.4,30.4 255.5,30 255.6,29.4 255.9,28.9 256.1,28.6 256.6,28.2 257,27.9 257.6,27.7 257.9,27.6 258.5,27.5 		"/>
	</g>
	<g>
		<polyline class="st2" points="258.5,27.6 259.1,27.6 259.4,27.7 260,28 260.4,28.3 260.7,28.5 260.9,28.6 261.2,29.2 261.3,29.5 
			261.5,30 261.6,30.6 261.5,31.2 261.3,31.9 261,32.4 260.9,32.6 260.4,33 260.2,33.2 259.7,33.5 259.1,33.7 258.4,33.7 
			257.9,33.7 257.6,33.6 257.3,33.5 256.8,33.2 256.6,33 256.1,32.6 256,32.4 255.7,31.9 255.5,31.2 255.4,30.9 255.4,30.5 
			255.5,30 255.7,29.5 256,28.9 256.1,28.6 256.6,28.3 257.1,28 257.6,27.7 258.5,27.6 		"/>
	</g>
</g>
<g>
	<path class="st1" d="M1.1,3.4c0,0,2.9-2.5,6.1-2.5S13,3.4,13,3.4s0.1-0.3,0.6-0.3s1.7,0.2,2.1,0.5c0.4,0.2,0.3,0,1.4,0
		s2.1-0.3,2.3-0.3c0.1,0,0.7-0.3,0.9-0.1c0.2,0.2,0.1,0.7,0.4,0.6s1.3-0.7,1.8-0.7s1,0,1,0v32.3c0,0-0.4,1.1-0.6,1.5S22,37.8,22,38
		c0,0.2,0,1.2-0.3,1.5c-0.4,0.3-1.1,0.5-1.3,0.2c-0.1-0.2-0.3-0.4-0.3-0.4s-0.1,0.4-0.6,0.5s-1.2,0.1-1.2,0s0-0.1,0-0.1
		s-0.4,0.5-0.8,0.1s-0.7-1.5-0.7-1.5s0.1-0.5-0.2-1.1c-0.3-0.6-0.9-0.8-1-1.3s-0.2-1.2-0.4-2.1s-0.2-1.3-0.3-1.9
		c-0.1-0.5-0.1-0.7,0-1.6c0-0.9,0.3-2.1,0.4-2.4c0-0.3,0.1-1,0.1-1s-1.3,0.1-2.1,0.2c-0.8,0.1-1.2,0.2-1.5,0
		c-0.3-0.3-0.3-0.3-0.3-0.3l-0.6,0.6l-0.6,0.3l-0.6-0.1l-0.4,0.9c0,0-1.5-0.4-1.6-1.1c0-0.7,0.7-0.8-0.4-0.8c-1.1,0-1.2,0.3-1.6-0.6
		c-0.3-0.9-0.5-1.4-0.3-1.9c0.2-0.5,0.5-1.1,0.7-1.6s0.2-0.7,0.4-1.2s0.4-1.4,0.9-1.5s1.3-0.5,1.5-0.7s0.6-0.7,0.7-1
		c0.1-0.3,0.3-0.6,0.7-0.8s0.8-0.6,1.1-0.7c0.2-0.1,0.7-0.8,0.9-0.9s0.4-0.3,0.5-0.6c0-0.3,0.2-0.8-0.5-1.1s-1.2-0.8-1.2-0.8
		S8.3,12.1,7.4,10S6.2,8.4,6.1,8.2C5.9,7.9,5.7,7.4,5.3,7C4.8,6.6,4.2,6.2,3.9,5.9S2.2,4.5,2.2,4.5S0.2,4,1.1,3.4z"/>
	<path class="st3" d="M22.1,10.4c0.1-0.1,0.2-0.2,0.4-0.3h0.1c0.2-0.2,0.5-0.5,0.3-0.8c-0.2-0.7-0.2-1.1-0.4-1.4
		c-0.2-0.3,0.1-0.4-0.2-1.1C22,6.1,21.1,5.2,21,5.1c-0.1-0.1-0.2,0-0.5-0.5c-0.2-0.4-0.5-1-0.7-1.3c-0.2,0.1-0.3,0.1-0.4,0.1
		s-1.2,0.3-2.3,0.3c-0.3,0-0.5,0-0.7,0c0,0,0.6,1-0.2,1.3c-0.9,0.3-1.3,0.4-1.9,1.2s-0.9,0.2-0.9,1.9s-0.4,2.6,0,3.5
		s-0.3,1.1,1.1,1.5s2.5,0.5,3.5,0.4s0.7-0.2,1.9-0.7c1.1-0.5,1.9-0.8,1.9-1.3C21.8,11.1,21.9,10.7,22.1,10.4L22.1,10.4L22.1,10.4z"
		/>
	<g>
		<path class="st3" d="M10.9,22.5c-1.1-0.5-2.3-0.6-2.5-0.6s-0.1,0-0.6-0.4s1-0.8-1-0.4l0,0c0,0.1-0.1,0.2-0.1,0.2
			c-0.2,0.5-0.2,0.8-0.4,1.2c-0.2,0.4-0.5,1.1-0.7,1.6c-0.1,0.5,0,0.9,0.3,1.9c0.3,0.9,0.5,0.6,1.6,0.6h0.1c0.3-0.8,0.8-1.6,1.2-1.9
			c0.8-0.4,1.1,0,1.1,0s-0.2-0.5,0.8-0.5s0.7,1,0.7,1.4c0,0.2,0,0.7,0.1,1.2l0.1-0.1c0,0,0,0,0.3,0.3s0.6,0.2,1.4,0.1
			c-0.1-0.9-0.3-2-0.4-2.5C12.5,24,12,23,10.9,22.5z"/>
		<path class="st3" d="M23.5,35.2V16.3c-0.8-0.5-2-1.1-2-0.8c0,0.4,0.1,1.6-0.3,2.5s0.1,2.1,0,2.8c-0.1,0.8,0,1.3-0.6,1.9
			c-0.6,0.7-2.7,1.6-3.1,2.1s-1.5,0.7-1.4,2c0.1,1.4,0.4,2.1,0,2.5c-0.3,0.3-1,0.4-1.4,0.7c0,0.1,0,0.1,0,0.2c0,0.9,0,1.1,0,1.6
			c0.1,0.5,0.1,0.9,0.2,1.8c0.1,0.9,0.3,1.7,0.4,2.1c0.1,0.5,0.6,0.7,1,1.3c0.1,0.2,0.2,0.3,0.2,0.5c0.4-0.2,0.7-0.3,0.8-0.4
			c0.3,0,0.6,0.6,0.6,0.6s0.9-1.6,1.2-1.1c0.3,0.5,0.3,0.9,0.6,0.9s0.6-0.2,1.2-0.1c0.5,0.1,0.6,0.1,1,0.3c0-0.2,0.6-0.7,0.9-1.1
			C23.2,36.4,23.5,35.2,23.5,35.2z"/>
	</g>
	<path class="st1" d="M20.1,9.8c0,0-0.2-3.3-3-3.2s-2.3,3.1-2.3,3.1s0.6,1.2,2,1.5C17.4,11.4,20.1,11.1,20.1,9.8z"/>
	<path class="st3" d="M15.2,9.1c0,0,0.9-1.3,2.5-1.3s2,1.9,2,1.9s-1,1.4-2.9,1C15,10.2,15.2,9.1,15.2,9.1z"/>
	<path class="st1" d="M18.7,9.2c0,0.7-0.6,1.3-1.3,1.3s-1.3-0.6-1.3-1.3s0.6-1.3,1.3-1.3S18.7,8.5,18.7,9.2z"/>
	<path class="st1" d="M46,3.4c0,0-2.9-2.5-6.1-2.5c-3.3,0-5.8,2.5-5.8,2.5s-0.2-0.3-0.7-0.3s-1.7,0.2-2.1,0.5s-0.3,0-1.4,0
		c-1.1,0-2.1-0.3-2.3-0.3S26.9,3,26.7,3.2c-0.2,0.2-0.1,0.7-0.4,0.6S25,3.1,24.5,3.1s-1,0-1,0v32.3c0,0,0.4,1.1,0.6,1.5
		S25,37.8,25,38c0,0.2,0,1.2,0.3,1.5c0.4,0.3,1.1,0.5,1.3,0.2c0.1-0.2,0.3-0.4,0.3-0.4s0.1,0.4,0.6,0.5s1.2,0.1,1.2,0s0-0.1,0-0.1
		s0.4,0.5,0.8,0.1s0.7-1.5,0.7-1.5s-0.1-0.5,0.2-1.1s0.9-0.8,1-1.3s0.2-1.2,0.4-2.1s0.1-1.3,0.2-1.8c0.1-0.5,0.1-0.7,0-1.6
		c0-0.9-0.3-2.1-0.4-2.4c0-0.3-0.1-1-0.1-1s1.3,0.1,2.1,0.2s1.2,0.2,1.5,0c0.3-0.3,0.3-0.3,0.3-0.3l0.5,0.7l0.6,0.3l0.6-0.1l0.4,0.8
		c0,0,1.5-0.4,1.6-1.1c0-0.7-0.7-0.8,0.4-0.8c1.1,0,1.2,0.3,1.6-0.6c0.3-0.9,0.5-1.4,0.3-1.9c-0.1-0.5-0.5-1.2-0.7-1.6
		s-0.2-0.7-0.4-1.2s-0.4-1.4-0.9-1.5s-1.3-0.5-1.5-0.7s-0.6-0.7-0.7-1s-0.3-0.6-0.7-0.8c-0.4-0.2-0.8-0.6-1.1-0.7
		c-0.2-0.1-0.7-0.8-0.9-0.9s-0.4-0.3-0.5-0.6s-0.2-0.8,0.5-1.1c0.7-0.3,1.2-0.8,1.2-0.8s2.8-1.1,3.7-3.2s1.2-1.6,1.3-1.8
		s0.4-0.7,0.8-1.1s1.1-0.8,1.4-1.1s2-1.5,2-1.5S46.8,4.1,46,3.4z"/>
	<polygon class="st1" points="23,15.4 23.5,16.3 24,15.8 24.1,3.1 23.5,3 23,3.2 23.1,12.6 	"/>
	<g>
		<path class="st3" d="M36.2,22.5c1.1-0.5,2.3-0.6,2.5-0.6s0.1,0,0.6-0.4s-1-0.8,1-0.4l0,0c0,0.1,0.1,0.2,0.1,0.2
			c0.2,0.5,0.2,0.8,0.4,1.2c0.2,0.4,0.5,1.1,0.7,1.6c0.1,0.5,0,0.9-0.3,1.9c-0.3,0.9-0.5,0.6-1.6,0.6h-0.1c-0.3-0.8-0.8-1.6-1.2-1.9
			c-0.8-0.4-1.1,0-1.1,0s0.2-0.5-0.8-0.5s-0.7,1-0.7,1.4c0,0.2,0,0.7-0.1,1.2l-0.1-0.1c0,0,0,0-0.3,0.3s-0.6,0.2-1.4,0.1
			c0.1-0.9,0.3-2,0.4-2.5C34.6,24,35.1,23,36.2,22.5z"/>
		<path class="st3" d="M23.5,35.2V16.3c0.8-0.5,2-1.1,2-0.8c0,0.4-0.1,1.6,0.3,2.5s-0.1,2.1,0,2.8c0.1,0.8,0,1.3,0.6,1.9
			c0.6,0.7,2.7,1.6,3.1,2.1c0.4,0.5,1.5,0.7,1.4,2s-0.4,2.1,0,2.5c0.3,0.3,1,0.4,1.4,0.7c0,0.1,0,0.1,0,0.2c0,0.9,0,1.1,0,1.6
			c-0.1,0.5-0.1,0.9-0.2,1.8c-0.1,0.9-0.3,1.7-0.4,2.1c-0.1,0.5-0.6,0.7-1,1.3c-0.1,0.2-0.2,0.3-0.2,0.5c-0.4-0.2-0.7-0.3-0.8-0.4
			c-0.3,0-0.6,0.6-0.6,0.6s-0.9-1.6-1.2-1.1c-0.3,0.5-0.3,0.9-0.6,0.9s-0.6-0.2-1.2-0.1c-0.5,0.1-0.6,0.1-1,0.3
			c0-0.2-0.6-0.7-0.9-1.1C23.9,36.4,23.5,35.2,23.5,35.2z"/>
	</g>
	<path class="st1" d="M27,9.8c0,0,0.2-3.3,3-3.2s2.3,3.1,2.3,3.1s-0.6,1.2-2,1.5C29.7,11.4,27,11.2,27,9.8z"/>
	<path class="st3" d="M31.9,9.1c0,0-0.9-1.3-2.5-1.3c-1.6,0-2,1.9-2,1.9s1,1.4,2.9,1C32.1,10.2,31.9,9.1,31.9,9.1z"/>
	<g>
		<path class="st4" d="M22.1,10.4c0,0,0.3-0.1,0.5-0.3h-0.1C22.3,10.1,22.2,10.2,22.1,10.4z"/>
		<path class="st3" d="M22.1,10.4L22.1,10.4L22.1,10.4z"/>
	</g>
	<g>
		<path class="st1" d="M30.9,9.2c0,0.7-0.6,1.3-1.3,1.3s-1.3-0.6-1.3-1.3s0.6-1.3,1.3-1.3C30.3,8,30.9,8.5,30.9,9.2z"/>
	</g>
	<rect x="23.3" y="16.3" class="st3" width="0.7" height="18.9"/>
</g>
<path class="st5" d="M170.1,30.5c0.6,0.6,0.6,1.6,0,2.2c-0.6,0.6-1.6,0.6-2.2,0l-4.6-4.6l2.2-2.2L170.1,30.5L170.1,30.5z M154.9,6.1
	c6.3,0,11.4,5.1,11.4,11.4c0,2.6-0.9,5-2.3,6.9l0.8,0.8l-2.2,2.2l-0.8-0.8c-1.9,1.5-4.3,2.3-6.9,2.3c-6.3,0-11.4-5.1-11.4-11.4
	S148.6,6.1,154.9,6.1L154.9,6.1z M161.8,10.7c-1.8-1.8-4.2-2.8-6.8-2.8l0,0c-2.7,0-5.1,1.1-6.8,2.8c-1.8,1.8-2.8,4.2-2.8,6.8l0,0
	c0,2.7,1.1,5.1,2.8,6.8c1.8,1.8,4.2,2.8,6.8,2.8c2.7,0,5.1-1.1,6.8-2.8s2.8-4.2,2.8-6.8C164.6,14.8,163.5,12.4,161.8,10.7
	L161.8,10.7z"/>
</svg>
