<?xml version="1.0" encoding="utf-8"?>
<!-- Generator: Adobe Illustrator 27.5.0, SVG Export Plug-In . SVG Version: 6.00 Build 0)  -->
<svg version="1.1" id="Layer_1" xmlns="http://www.w3.org/2000/svg" xmlns:xlink="http://www.w3.org/1999/xlink" x="0px" y="0px"
	 viewBox="0 0 37.6 31.1" style="enable-background:new 0 0 37.6 31.1;" xml:space="preserve">
<style type="text/css">
	.st0{fill:none;stroke:#F7941D;stroke-width:2;stroke-miterlimit:10;}
	.st1{fill:#F7941D;}
	.st2{fill-rule:evenodd;clip-rule:evenodd;fill:#F7941D;}
</style>
<line class="st0" x1="-11.9" y1="9.2" x2="-32.3" y2="9.2"/>
<line class="st0" x1="-11.9" y1="15.8" x2="-32.3" y2="15.8"/>
<line class="st0" x1="-11.9" y1="22.3" x2="-32.3" y2="22.3"/>
<line class="st0" x1="131.6" y1="3.9" x2="131.6" y2="28.1"/>
<line class="st0" x1="176.3" y1="3.9" x2="176.3" y2="28.1"/>
<line class="st0" x1="221.1" y1="3.9" x2="221.1" y2="28.1"/>
<g>
	<g>
		<g>
			<path class="st1" d="M34.6,3.2c0,0-2.1-1.9-4.5-1.9s-4.3,1.9-4.3,1.9S25.7,3,25.3,3c-0.4,0-1.3,0.2-1.6,0.4c-0.3,0.2-0.2,0-1,0
				s-1.6-0.2-1.7-0.3c-0.1,0-0.5-0.3-0.6-0.1c-0.1,0.1-0.1,0.5-0.3,0.4c-0.2-0.1-0.9-0.5-1.3-0.5c-0.4,0-0.7,0-0.7,0v0
				c0,0-0.3,0-0.7,0c-0.4,0-1.1,0.5-1.3,0.5c-0.2,0.1-0.2-0.3-0.3-0.4c-0.1-0.1-0.5,0.1-0.6,0.1c-0.1,0-0.9,0.3-1.7,0.3
				s-0.7,0.2-1,0C12.1,3.2,11.2,3,10.8,3c-0.4,0-0.5,0.2-0.5,0.2S8.5,1.4,6.1,1.4S1.6,3.2,1.6,3.2C1,3.7,2.4,4.1,2.4,4.1
				s1,0.9,1.3,1c0.2,0.2,0.7,0.5,1,0.8C5,6.2,5.2,6.6,5.3,6.7c0.1,0.1,0.3-0.3,1,1.3C6.9,9.5,9,10.3,9,10.3s0.4,0.4,0.9,0.6
				c0.5,0.2,0.4,0.6,0.3,0.8c0,0.2-0.2,0.4-0.3,0.5c-0.1,0.1-0.4,0.6-0.6,0.7C9,13,8.8,13.2,8.4,13.4C8.1,13.5,8,13.8,7.9,14
				c-0.1,0.2-0.4,0.5-0.5,0.7c-0.1,0.2-0.7,0.5-1.1,0.5c-0.4,0.1-0.5,0.7-0.6,1.1c-0.2,0.4-0.2,0.6-0.3,0.9
				c-0.1,0.3-0.4,0.8-0.5,1.2c-0.1,0.4,0,0.7,0.3,1.4c0.3,0.7,0.4,0.4,1.1,0.5s0.3,0.1,0.3,0.6c0,0.5,1.1,0.8,1.1,0.8L7.9,21
				l0.5,0.1l0.4-0.3l0.4-0.5c0,0,0,0,0.2,0.2c0.2,0.2,0.5,0.1,1.1,0c0.6-0.1,1.6-0.1,1.6-0.1S12,21,12,21.2c0,0.2-0.3,1.1-0.3,1.8
				c0,0.6,0,0.8,0,1.2c0.1,0.4,0.1,0.6,0.2,1.3s0.2,1.2,0.3,1.6c0.1,0.4,0.5,0.5,0.7,1c0.3,0.4,0.2,0.8,0.2,0.8s0.2,0.8,0.5,1.1
				c0.3,0.3,0.6-0.1,0.6-0.1s0,0,0,0.1c0,0.1,0.5,0.1,0.9,0c0.4-0.1,0.5-0.4,0.5-0.4s0.1,0.1,0.3,0.3c0.1,0.2,0.6,0.1,0.9-0.2
				c0.3-0.3,0.3-1,0.3-1.1c0-0.1,0.5-0.5,0.6-0.8c0.2-0.3,0.4-1.1,0.4-1.1v0c0,0,0.3,0.8,0.4,1.1c0.2,0.3,0.6,0.6,0.6,0.8
				c0,0.1,0,0.9,0.3,1.1c0.3,0.3,0.8,0.4,0.9,0.2c0.1-0.2,0.3-0.3,0.3-0.3s0.1,0.3,0.5,0.4c0.4,0.1,0.9,0.1,0.9,0c0-0.1,0-0.1,0-0.1
				s0.3,0.4,0.6,0.1c0.3-0.3,0.5-1.1,0.5-1.1S23,28.4,23.3,28c0.3-0.4,0.6-0.6,0.7-1c0.1-0.4,0.2-0.9,0.3-1.6
				c0.1-0.7,0.1-0.9,0.2-1.3c0.1-0.4,0.1-0.5,0-1.2c0-0.6-0.3-1.5-0.3-1.8s-0.1-0.8-0.1-0.8s1,0.1,1.6,0.1c0.6,0.1,0.9,0.2,1.1,0
				s0.2-0.2,0.2-0.2l0.4,0.5l0.4,0.3l0.5-0.1l0.3,0.6c0,0,1.1-0.3,1.1-0.8c0-0.5-0.5-0.6,0.3-0.6c0.8,0,0.9,0.2,1.1-0.5
				c0.3-0.7,0.4-1,0.3-1.4c-0.1-0.4-0.4-0.9-0.5-1.2s-0.1-0.5-0.3-0.9c-0.2-0.4-0.3-1-0.6-1.1c-0.4-0.1-0.9-0.4-1.1-0.5
				c-0.1-0.2-0.4-0.5-0.5-0.7c-0.1-0.2-0.2-0.5-0.5-0.6c-0.3-0.1-0.6-0.4-0.8-0.5c-0.2-0.1-0.5-0.6-0.6-0.7C26.2,12.1,26,12,26,11.8
				c0-0.2-0.2-0.6,0.3-0.8c0.5-0.2,0.9-0.6,0.9-0.6s2-0.8,2.7-2.4c0.7-1.5,0.9-1.1,1-1.3c0.1-0.1,0.3-0.5,0.6-0.8
				c0.3-0.3,0.8-0.6,1-0.8c0.2-0.2,1.3-1,1.3-1S35.2,3.7,34.6,3.2z"/>
		</g>
	</g>
</g>
<g>
	<g>
		<polyline class="st2" points="232,1.6 236.6,1.6 237.7,5.3 259.5,5.3 258.8,14.5 240.1,17.8 239.7,17.9 239.5,18.1 239.2,18.4 
			239.2,18.8 239.2,19 239.2,19.3 239.2,19.5 239.4,20 239.7,20.4 240.1,20.5 240.3,20.6 258.8,20.7 258.8,23.3 239.5,23.2 
			239.2,23.2 238.5,23 237.9,22.7 237.3,22.4 236.9,21.9 236.6,21.4 236.4,20.9 236.2,20.3 236.1,19.8 236.1,19.1 236.2,18.5 
			236.3,18 236.5,17.5 236.8,16.9 237.2,16.5 237.6,16.2 234.2,3.8 232.6,3.8 232,1.6 		"/>
	</g>
	<g>
		<polyline class="st2" points="232,1.6 236.7,1.6 237.7,5.3 259.6,5.3 258.8,14.6 240.2,17.8 239.7,18 239.6,18.1 239.3,18.5 
			239.2,18.8 239.2,19 239.2,19.3 239.2,19.6 239.4,20 239.7,20.4 240.1,20.6 240.3,20.6 258.8,20.7 258.8,23.3 239.6,23.2 
			239.2,23.2 238.5,23 237.9,22.8 237.4,22.4 237,21.9 236.7,21.5 236.4,20.9 236.2,20.3 236.1,19.8 236.1,19.2 236.2,18.6 
			236.4,18 236.6,17.5 236.8,17 237.2,16.6 237.7,16.2 234.3,3.9 232.7,3.9 232,1.6 		"/>
	</g>
	<g>
		<polyline class="st2" points="241.8,23.8 242.4,23.9 242.8,24 243.3,24.2 243.8,24.5 244,24.7 244.2,24.9 244.5,25.4 244.7,25.7 
			244.7,26 244.8,26.3 244.9,26.9 244.8,27.5 244.7,27.8 244.7,28.1 244.4,28.6 244.2,28.9 243.8,29.3 243.5,29.5 243,29.7 
			242.4,29.9 241.7,29.9 241.2,29.9 240.7,29.7 240.1,29.5 239.8,29.3 239.5,28.9 239.3,28.6 239,28.1 238.9,27.8 238.8,27.5 
			238.8,27.2 238.8,26.7 238.8,26.3 238.9,26 239,25.7 239.3,25.2 239.5,24.9 239.8,24.5 240.4,24.2 240.9,24 241.2,23.9 
			241.8,23.8 		"/>
	</g>
	<g>
		<polyline class="st2" points="241.9,23.9 242.5,23.9 242.8,24 243.3,24.2 243.8,24.5 244,24.8 244.2,24.9 244.6,25.5 244.7,25.8 
			244.8,26 244.9,26.3 244.9,26.9 244.9,27.5 244.8,27.8 244.7,28.1 244.4,28.7 244.2,28.9 243.8,29.3 243.6,29.5 243,29.8 
			242.5,30 241.7,30 241.3,30 240.7,29.8 240.2,29.5 239.9,29.3 239.5,28.9 239.3,28.7 239,28.1 239,27.8 238.9,27.5 238.8,27.2 
			238.8,26.8 238.9,26.3 239,26 239,25.8 239.3,25.2 239.5,24.9 239.9,24.5 240.4,24.2 241,24 241.9,23.9 		"/>
	</g>
	<g>
		<polyline class="st2" points="255.4,23.8 256,23.9 256.2,24 256.9,24.2 257.3,24.5 257.5,24.7 257.8,24.9 258.1,25.4 258.2,25.7 
			258.4,26.3 258.5,26.9 258.4,27.5 258.2,28.1 257.9,28.6 257.8,28.9 257.3,29.3 257.1,29.5 256.6,29.7 256,29.9 255.2,29.9 
			254.8,29.9 254.5,29.9 254.2,29.7 253.7,29.5 253.5,29.3 253,28.9 252.9,28.6 252.6,28.1 252.4,27.5 252.3,27.2 252.3,26.7 
			252.4,26.3 252.6,25.7 252.9,25.2 253,24.9 253.5,24.5 253.9,24.2 254.5,24 254.8,23.9 255.4,23.8 		"/>
	</g>
	<g>
		<polyline class="st2" points="255.4,23.9 256,23.9 256.3,24 256.9,24.2 257.3,24.5 257.6,24.8 257.8,24.9 258.1,25.5 258.3,25.8 
			258.4,26.3 258.5,26.9 258.4,27.5 258.3,28.1 258,28.7 257.8,28.9 257.3,29.3 257.1,29.5 256.7,29.8 256,30 255.3,30 254.8,30 
			254.5,29.9 254.2,29.8 253.7,29.5 253.5,29.3 253.1,28.9 252.9,28.7 252.6,28.1 252.4,27.5 252.4,27.2 252.4,26.8 252.4,26.3 
			252.6,25.8 252.9,25.2 253.1,24.9 253.5,24.5 254,24.2 254.5,24 255.4,23.9 		"/>
	</g>
</g>
</svg>
