<?xml version="1.0" encoding="utf-8"?>
<!-- Generator: Adobe Illustrator 27.5.0, SVG Export Plug-In . SVG Version: 6.00 Build 0)  -->
<svg version="1.1" id="Layer_1" xmlns="http://www.w3.org/2000/svg" xmlns:xlink="http://www.w3.org/1999/xlink" x="0px" y="0px"
	 viewBox="0 0 78 45.4" style="enable-background:new 0 0 78 45.4;" xml:space="preserve">
<style type="text/css">
	.st0{fill:#F7941D;}
	.st1{fill:#FFFFFF;}
</style>
<g>
	<rect y="-0.8" width="78.7" height="27.1"/>
	<rect y="26.2" class="st0" width="78.7" height="19.2"/>
	<g>
		<path class="st1" d="M18,13.5c0.3,0.3,0.4,0.6,0.5,1c0,0.1,0.1,0.3,0.1,0.4v2.8c0,1.8-0.6,3.3-1.9,4.6c-1.3,1.3-2.8,1.9-4.6,1.9
			c-1.8,0-3.3-0.6-4.6-1.9c-1.3-1.3-1.9-2.8-1.9-4.6V8.2c0-1.8,0.6-3.3,1.9-4.6s2.8-1.9,4.6-1.9c1.8,0,3.3,0.6,4.6,1.9
			c1.3,1.3,1.9,2.8,1.9,4.6v0.4c0,0.3-0.1,0.6-0.3,0.8c-0.2,0.2-0.5,0.3-0.8,0.3c-0.3,0-0.6-0.1-0.8-0.3c-0.2-0.2-0.3-0.5-0.3-0.8
			V8.2c0-1.2-0.4-2.2-1.2-3c-0.8-0.8-1.8-1.2-3-1.2s-2.2,0.4-3,1.2c-0.8,0.8-1.2,1.8-1.2,3v9.6c0,1.2,0.4,2.2,1.2,3
			c0.8,0.8,1.8,1.2,3,1.2s2.2-0.4,3-1.2c0.8-0.8,1.2-1.8,1.2-3V15h-1.1c-0.3,0-0.6-0.1-0.8-0.3c-0.2-0.2-0.3-0.5-0.3-0.8
			s0.1-0.6,0.3-0.8c0.2-0.2,0.5-0.3,0.8-0.3h0.9c0.5,0,0.9,0.1,1.2,0.2C17.6,13.2,17.8,13.3,18,13.5z"/>
		<path class="st1" d="M23.1,22.8c0,0.3-0.1,0.6-0.3,0.8c-0.2,0.2-0.5,0.3-0.8,0.3c-0.3,0-0.6-0.1-0.8-0.3c-0.2-0.2-0.3-0.5-0.3-0.8
			V3.3c0-0.3,0.1-0.6,0.3-0.8c0.2-0.2,0.5-0.3,0.8-0.3c0.3,0,0.6,0.1,0.8,0.3C23,2.7,23.1,3,23.1,3.3V22.8z"/>
		<path class="st1" d="M37,21.7c0.3,0,0.6,0.1,0.8,0.3c0.2,0.2,0.3,0.5,0.3,0.8c0,0.3-0.1,0.6-0.3,0.8c-0.2,0.2-0.5,0.3-0.8,0.3
			H26.7c-0.4,0-0.7-0.2-0.9-0.5c-0.2-0.3-0.2-0.7,0-1.1l9.7-17.9h-8.1c-0.3,0-0.6-0.1-0.8-0.3c-0.2-0.2-0.3-0.5-0.3-0.8
			c0-0.3,0.1-0.6,0.3-0.8c0.2-0.2,0.5-0.3,0.8-0.3h9.9c0.4,0,0.7,0.2,0.9,0.5c0.2,0.3,0.2,0.7,0,1.1l-9.7,17.9H37z"/>
		<path class="st1" d="M41.9,23.9c-0.3,0-0.6-0.1-0.8-0.3c-0.2-0.2-0.3-0.5-0.3-0.8V6.7c0-1.4,0.5-2.5,1.5-3.5c1-1,2.1-1.5,3.5-1.5
			c1.6,0,2.9,0.6,3.9,1.9c1-1.2,2.3-1.9,3.9-1.9c1.4,0,2.5,0.5,3.5,1.5c1,1,1.5,2.1,1.5,3.5v16.1c0,0.3-0.1,0.6-0.3,0.8
			c-0.2,0.2-0.5,0.3-0.8,0.3c-0.3,0-0.6-0.1-0.8-0.3c-0.2-0.2-0.3-0.5-0.3-0.8V6.7c0-0.8-0.3-1.4-0.8-1.9c-0.5-0.5-1.2-0.8-2-0.8
			c-0.8,0-1.4,0.3-1.9,0.8c-0.5,0.5-0.8,1.2-0.8,1.9v16.1c0,0.3-0.1,0.6-0.3,0.8c-0.2,0.2-0.5,0.3-0.8,0.3c-0.3,0-0.6-0.1-0.8-0.3
			c-0.2-0.2-0.3-0.5-0.3-0.8V6.7c0-0.8-0.3-1.4-0.8-1.9c-0.5-0.5-1.2-0.8-1.9-0.8c-0.8,0-1.4,0.3-1.9,0.8C43.3,5.3,43,5.9,43,6.7
			v16.1c0,0.3-0.1,0.6-0.3,0.8C42.5,23.8,42.2,23.9,41.9,23.9z"/>
		<path class="st1" d="M67.3,1.8c1.8,0,3.3,0.6,4.6,1.9c1.3,1.3,1.9,2.8,1.9,4.6v9.6c0,1.8-0.6,3.3-1.9,4.6
			c-1.3,1.3-2.8,1.9-4.6,1.9c-1.8,0-3.3-0.6-4.6-1.9c-1.3-1.3-1.9-2.8-1.9-4.6V8.2c0-1.8,0.6-3.3,1.9-4.6C64,2.4,65.5,1.8,67.3,1.8z
			 M71.5,8.2c0-1.2-0.4-2.2-1.2-3c-0.8-0.8-1.8-1.2-3-1.2c-1.2,0-2.2,0.4-3,1.2C63.4,6,63,7.1,63,8.2v9.6c0,1.2,0.4,2.2,1.2,3
			c0.8,0.8,1.8,1.2,3,1.2c1.2,0,2.2-0.4,3-1.2c0.8-0.8,1.2-1.8,1.2-3V8.2z"/>
	</g>
	<g>
		<path class="st1" d="M11.3,32.3H7.8v-3.4h12.5v3.4h-3.5v11h-5.5V32.3z"/>
		<path class="st1" d="M24.5,28.9h10.4v3.4H30v2.1h4.3v3.4H30V40h5v3.4H24.5V28.9z"/>
		<path class="st1" d="M51.3,43.1c-0.7,0.2-2.5,0.5-4.2,0.5c-5.5,0-7.9-2.8-7.9-7.1c0-4.6,2.8-7.8,8.2-7.8c1.1,0,2.5,0.2,3.9,0.6
			v3.7c-0.8-0.4-1.6-0.6-2.4-0.6c-2.5,0-3.9,1.3-3.9,4.1c0,2.3,1.1,3.5,3.1,3.5c1.2,0,2-0.2,3.2-0.7V43.1z"/>
		<path class="st1" d="M55.9,28.9h5.5v5.4h3.4v-5.4h5.5v14.4h-5.5v-5.7h-3.4v5.7h-5.5V28.9z"/>
	</g>
</g>
</svg>
