<?xml version="1.0" encoding="utf-8"?>
<!-- Generator: Adobe Illustrator 27.5.0, SVG Export Plug-In . SVG Version: 6.00 Build 0)  -->
<svg version="1.1" id="Layer_1" xmlns="http://www.w3.org/2000/svg" xmlns:xlink="http://www.w3.org/1999/xlink" x="0px" y="0px"
	 viewBox="0 0 37.6 31.1" style="enable-background:new 0 0 37.6 31.1;" xml:space="preserve">
<style type="text/css">
	.st0{fill:none;stroke:#F7941D;stroke-width:2;stroke-miterlimit:10;}
	.st1{fill-rule:evenodd;clip-rule:evenodd;fill:#F7941D;}
</style>
<line class="st0" x1="-11.9" y1="9.2" x2="-32.3" y2="9.2"/>
<line class="st0" x1="-11.9" y1="15.8" x2="-32.3" y2="15.8"/>
<line class="st0" x1="-11.9" y1="22.3" x2="-32.3" y2="22.3"/>
<line class="st0" x1="131.6" y1="3.9" x2="131.6" y2="28.1"/>
<line class="st0" x1="176.3" y1="3.9" x2="176.3" y2="28.1"/>
<line class="st0" x1="221.1" y1="3.9" x2="221.1" y2="28.1"/>
<g>
	<g>
		<polyline class="st1" points="3.6,1.6 8.3,1.6 9.4,5.3 31.2,5.3 30.4,14.5 11.8,17.8 11.3,17.9 11.2,18.1 10.9,18.4 10.8,18.8 
			10.8,19 10.8,19.3 10.8,19.5 11,20 11.3,20.4 11.7,20.5 12,20.6 30.4,20.7 30.4,23.3 11.2,23.2 10.8,23.2 10.1,23 9.5,22.7 
			9,22.4 8.6,21.9 8.3,21.4 8.1,20.9 7.8,20.3 7.7,19.8 7.7,19.1 7.8,18.5 8,18 8.2,17.5 8.4,16.9 8.8,16.5 9.3,16.2 5.9,3.8 
			4.3,3.8 3.6,1.6 		"/>
	</g>
	<g>
		<polyline class="st1" points="3.6,1.6 8.3,1.6 9.4,5.3 31.2,5.3 30.5,14.6 11.8,17.8 11.4,18 11.2,18.1 10.9,18.5 10.8,18.8 
			10.8,19 10.8,19.3 10.8,19.6 11.1,20 11.4,20.4 11.8,20.6 12,20.6 30.5,20.7 30.5,23.3 11.2,23.2 10.8,23.2 10.2,23 9.5,22.8 
			9,22.4 8.6,21.9 8.3,21.5 8.1,20.9 7.9,20.3 7.8,19.8 7.8,19.2 7.9,18.6 8,18 8.2,17.5 8.5,17 8.9,16.6 9.3,16.2 5.9,3.9 4.3,3.9 
			3.6,1.6 		"/>
	</g>
	<g>
		<polyline class="st1" points="13.5,23.8 14.1,23.9 14.4,24 14.9,24.2 15.4,24.5 15.6,24.7 15.9,24.9 16.2,25.4 16.3,25.7 16.4,26 
			16.5,26.3 16.6,26.9 16.5,27.5 16.4,27.8 16.3,28.1 16,28.6 15.9,28.9 15.4,29.3 15.2,29.5 14.6,29.7 14.1,29.9 13.3,29.9 
			12.9,29.9 12.3,29.7 11.8,29.5 11.5,29.3 11.1,28.9 11,28.6 10.7,28.1 10.6,27.8 10.5,27.5 10.4,27.2 10.4,26.7 10.5,26.3 
			10.6,26 10.7,25.7 11,25.2 11.1,24.9 11.5,24.5 12,24.2 12.6,24 12.9,23.9 13.5,23.8 		"/>
	</g>
	<g>
		<polyline class="st1" points="13.5,23.9 14.1,23.9 14.4,24 15,24.2 15.4,24.5 15.7,24.8 15.9,24.9 16.2,25.5 16.4,25.8 16.4,26 
			16.5,26.3 16.6,26.9 16.5,27.5 16.4,27.8 16.4,28.1 16.1,28.7 15.9,28.9 15.4,29.3 15.2,29.5 14.7,29.8 14.1,30 13.4,30 12.9,30 
			12.4,29.8 11.8,29.5 11.5,29.3 11.2,28.9 11,28.7 10.7,28.1 10.6,27.8 10.5,27.5 10.5,27.2 10.5,26.8 10.5,26.3 10.6,26 
			10.7,25.8 11,25.2 11.2,24.9 11.5,24.5 12.1,24.2 12.6,24 13.5,23.9 		"/>
	</g>
	<g>
		<polyline class="st1" points="27.1,23.8 27.7,23.9 27.9,24 28.5,24.2 29,24.5 29.2,24.7 29.4,24.9 29.7,25.4 29.9,25.7 30,26.3 
			30.1,26.9 30,27.5 29.9,28.1 29.6,28.6 29.4,28.9 29,29.3 28.7,29.5 28.3,29.7 27.7,29.9 26.9,29.9 26.4,29.9 26.1,29.9 
			25.8,29.7 25.4,29.5 25.1,29.3 24.7,28.9 24.5,28.6 24.2,28.1 24.1,27.5 24,27.2 24,26.7 24.1,26.3 24.2,25.7 24.5,25.2 
			24.7,24.9 25.1,24.5 25.6,24.2 26.1,24 26.4,23.9 27.1,23.8 		"/>
	</g>
	<g>
		<polyline class="st1" points="27.1,23.9 27.7,23.9 27.9,24 28.5,24.2 29,24.5 29.2,24.8 29.5,24.9 29.8,25.5 29.9,25.8 30.1,26.3 
			30.2,26.9 30.1,27.5 29.9,28.1 29.6,28.7 29.5,28.9 29,29.3 28.8,29.5 28.3,29.8 27.7,30 26.9,30 26.5,30 26.2,29.9 25.9,29.8 
			25.4,29.5 25.2,29.3 24.7,28.9 24.6,28.7 24.3,28.1 24.1,27.5 24,27.2 24,26.8 24.1,26.3 24.3,25.8 24.6,25.2 24.7,24.9 
			25.2,24.5 25.6,24.2 26.2,24 27.1,23.9 		"/>
	</g>
</g>
</svg>
